<?xml version="1.0" encoding="UTF-8"?>
<svg version="1.1" xmlns="http://www.w3.org/2000/svg" width="208" height="208">
<path d="M0 0 C0.66 0 1.32 0 2 0 C1.58402437 1.39603943 1.16715317 2.79181199 0.75 4.1875 C0.481875 5.10015625 0.21375 6.0128125 -0.0625 6.953125 C-0.70476893 9.04049904 -1.39495596 11.1135564 -2.125 13.171875 C-5.22722752 22.17695209 -5.98930594 29.51695718 -2.4375 38.5 C1.25742117 45.99772326 7.25057518 56.12528759 15 60 C15.61746094 59.06800781 16.23492187 58.13601562 16.87109375 57.17578125 C18.64163942 54.50622393 20.42195394 51.84345241 22.20703125 49.18359375 C23.96159469 46.56773206 25.68792123 43.93751395 27.38671875 41.28515625 C31.80267672 34.48895208 35.82994907 28.5131874 44.0546875 26.49609375 C46 26.1875 46 26.1875 49 26 C47.69479458 28.71624022 46.26364436 31.22506007 44.58569336 33.72705078 C43.87001442 34.79803513 43.87001442 34.79803513 43.13987732 35.89065552 C42.62836624 36.65119232 42.11685516 37.41172913 41.58984375 38.1953125 C41.06234024 38.98396698 40.53483673 39.77262146 39.99134827 40.58517456 C38.30892 43.09992276 36.62341584 45.61258885 34.9375 48.125 C33.24841921 50.64481955 31.56001042 53.16508274 29.87294006 55.68624878 C28.82361921 57.25409383 27.77306581 58.82111479 26.72117615 60.38723755 C26.24720901 61.09492279 25.77324188 61.80260803 25.28491211 62.53173828 C24.86680771 63.15476837 24.44870331 63.77779846 24.01792908 64.41970825 C22.93829636 66.03308753 22.93829636 66.03308753 22 68 C22.49371094 68.69867188 22.98742188 69.39734375 23.49609375 70.1171875 C24.13675781 71.02726562 24.77742188 71.93734375 25.4375 72.875 C26.07558594 73.77992187 26.71367188 74.68484375 27.37109375 75.6171875 C30.74177357 80.54791817 30.82663561 85.13406652 30 91 C28.47124457 94.155788 26.41307829 96.479195 24 99 C23.505 99.58265625 23.01 100.1653125 22.5 100.765625 C11.66951234 112.7874663 -8.48880505 121.81225287 -24 126 C-25.32 126 -26.64 126 -28 126 C-27.37098823 122.00706445 -25.36353273 119.30445781 -23.09765625 116.01171875 C-22.70409943 115.43604156 -22.3105426 114.86036438 -21.90505981 114.26724243 C-20.62947864 112.40364983 -19.34599451 110.54564899 -18.0625 108.6875 C-17.18659584 107.4102017 -16.31135249 106.13245001 -15.43676758 104.85424805 C-13.7250804 102.35299453 -12.0112413 99.85323975 -10.29589844 97.35449219 C-7.55943457 93.36282606 -4.8623665 89.34567596 -2.1875 85.3125 C-1.80746826 84.74031738 -1.42743652 84.16813477 -1.03588867 83.57861328 C-0.02323248 82.05286878 0.98841899 80.52645757 2 79 C3.20776793 77.18712319 4.41602538 75.37457231 5.625 73.5625 C6.32496094 72.51255859 6.32496094 72.51255859 7.0390625 71.44140625 C7.35617188 70.96574219 7.67328125 70.49007812 8 70 C6.6849293 67.05220866 5.31883004 65.16177479 2.9375 63 C-6.33479126 53.97988403 -15.03477731 42.75357219 -15.3125 29.4375 C-15.14701723 16.01960532 -9.19341653 9.19341653 0 0 Z M15 76 C8.4 85.9 1.8 95.8 -5 106 C-4.34 106.33 -3.68 106.66 -3 107 C-0.66492287 105.8683857 1.52008816 104.68806792 3.75 103.375 C4.3584375 103.03082031 4.966875 102.68664062 5.59375 102.33203125 C12.39349555 98.39457175 17.78045359 94.34056581 21 87 C21.25329784 83.85289698 21.25329784 83.85289698 20 81 C18.35 79.35 16.7 77.7 15 76 Z " fill="#FFFFFF" transform="translate(35,20)"/>
<path d="M0 0 C3.01996307 1.68421017 5.32670347 3.12178713 7.4375 5.875 C8.87659309 11.31157389 6.14881164 16.40518827 3.75 21.1875 C3.31880859 22.11079102 3.31880859 22.11079102 2.87890625 23.05273438 C0.89722032 27.04639402 -0.89675371 29.20687483 -5 31 C-9.99510447 30.89372118 -13.09760941 29.01548364 -17 26 C-19.37065734 22.44401399 -19.42697958 21.19444644 -19 17 C-17.98362036 14.47436621 -16.95360634 12.1995053 -15.6875 9.8125 C-15.37876953 9.19697266 -15.07003906 8.58144531 -14.75195312 7.94726562 C-11.12586693 0.9012076 -8.15133989 -2.07779252 0 0 Z " fill="#FFFFFF" transform="translate(55,32)"/>
<path d="M0 0 C2.64 0 5.28 0 8 0 C8.66 0.66 9.32 1.32 10 2 C10.33 1.34 10.66 0.68 11 0 C18.38804781 -0.36334661 18.38804781 -0.36334661 21 1.1875 C22.34528636 3.62583152 22.26871933 5.24562689 22 8 C21.814375 8.61875 21.62875 9.2375 21.4375 9.875 C20.788143 13.0290197 21.45616721 15.85785502 22 19 C21.278125 18.814375 20.55625 18.62875 19.8125 18.4375 C17.08113974 17.84485634 17.08113974 17.84485634 14.71875 18.46875 C11.64706082 19.06896513 8.81460211 19.09686376 5.6875 19.0625 C3.810625 19.041875 1.93375 19.02125 0 19 C0 12.73 0 6.46 0 0 Z M5 4 C6 7 6 7 6 7 Z M11 4 C12 6 12 6 12 6 Z M16 4 C17 7 17 7 17 7 Z M10 7 C8.74875954 8.66274199 8.74875954 8.66274199 8 11 C8.7913437 14.20898563 8.7913437 14.20898563 10 17 C10.33 17 10.66 17 11 17 C11 13.7 11 10.4 11 7 C10.67 7 10.34 7 10 7 Z " fill="#FFFFFF" transform="translate(91,104)"/>
<path d="M0 0 C2.97 0 5.94 0 9 0 C8.67 6.27 8.34 12.54 8 19 C6.35 19 4.7 19 3 19 C3 14.05 3 9.1 3 4 C1.02 4.99 -0.96 5.98 -3 7 C-2.319375 7.721875 -1.63875 8.44375 -0.9375 9.1875 C1 12 1 12 0.875 14.6875 C0 17 0 17 -2 19 C-5 18.8125 -5 18.8125 -8 18 C-10 15 -10 15 -10 12 C-8.68 11.67 -7.36 11.34 -6 11 C-7.0209375 9.9171875 -7.0209375 9.9171875 -8.0625 8.8125 C-10 6 -10 6 -9.9375 3.3125 C-7.81905376 -1.91300073 -4.6885932 -0.868258 0 0 Z M-5 3 C-4 6 -4 6 -4 6 Z M-5 12 C-4 15 -4 15 -4 15 Z " fill="#FFFFFF" transform="translate(184,80)"/>
<path d="M0 0 C6.33333333 0 12.66666667 0 19 0 C19 1.32 19 2.64 19 4 C18.34 4 17.68 4 17 4 C17 8.95 17 13.9 17 19 C15.35 19 13.7 19 12 19 C12 14.05 12 9.1 12 4 C11.34 4 10.68 4 10 4 C10.061875 5.175625 10.061875 5.175625 10.125 6.375 C10 9 10 9 8 11 C7.01 11 6.02 11 5 11 C5 13.64 5 16.28 5 19 C3.35 19 1.7 19 0 19 C0 12.73 0 6.46 0 0 Z M5 4 C6 7 6 7 6 7 Z " fill="#FFFFFF" transform="translate(126,104)"/>
<path d="M0 0 C1.32 0 2.64 0 4 0 C4.66 1.32 5.32 2.64 6 4 C6.33 2.68 6.66 1.36 7 0 C8.32 0 9.64 0 11 0 C11 6.27 11 12.54 11 19 C9.68 19 8.36 19 7 19 C6.34 17.35 5.68 15.7 5 14 C4.67 15.65 4.34 17.3 4 19 C2.68 19 1.36 19 0 19 C0 12.73 0 6.46 0 0 Z " fill="#FFFFFF" transform="translate(164,104)"/>
<path d="M0 0 C1 1 1 1 1.0625 3.5625 C1.041875 4.366875 1.02125 5.17125 1 6 C-0.32 6 -1.64 6 -3 6 C-3.33 5.01 -3.66 4.02 -4 3 C-4.33 4.32 -4.66 5.64 -5 7 C-3.02 7 -1.04 7 1 7 C1 10.63 1 14.26 1 18 C-6.42454707 18.36514166 -6.42454707 18.36514166 -8.7421875 16.89453125 C-10.59897766 14.09781315 -10.36111806 11.82098728 -10.3125 8.5 C-10.30863281 7.3553125 -10.30476562 6.210625 -10.30078125 5.03125 C-10 2 -10 2 -8 -1 C-4.36442231 -2.21185923 -3.36216382 -1.59260392 0 0 Z M-6 8 C-5 10 -5 10 -5 10 Z M-5 11 C-5 11.99 -5 12.98 -5 14 C-4.34 14 -3.68 14 -3 14 C-3 13.01 -3 12.02 -3 11 C-3.66 11 -4.32 11 -5 11 Z " fill="#FFFFFF" transform="translate(143,81)"/>
<path d="M0 0 C2.375 0.875 2.375 0.875 4.375 3.875 C4.67578125 6.65234375 4.67578125 6.65234375 4.6875 9.8125 C4.70425781 10.85277344 4.72101563 11.89304687 4.73828125 12.96484375 C4.33346133 16.20775597 3.65991988 17.57372032 1.375 19.875 C-1.41338907 20.36296809 -2.88004984 20.37341989 -5.25390625 18.78515625 C-7.3340675 15.88715383 -7.05883383 13.3945227 -7.0625 9.875 C-7.09150391 8.01875 -7.09150391 8.01875 -7.12109375 6.125 C-6.625 2.875 -6.625 2.875 -4.76171875 0.9296875 C-2.625 -0.125 -2.625 -0.125 0 0 Z M-1.625 3.875 C-2.91112676 4.93478933 -2.91112676 4.93478933 -2.72265625 7.37890625 C-2.71105469 8.38824219 -2.69945312 9.39757812 -2.6875 10.4375 C-2.67847656 11.44941406 -2.66945312 12.46132812 -2.66015625 13.50390625 C-2.64855469 14.28636719 -2.63695312 15.06882812 -2.625 15.875 C-1.965 15.875 -1.305 15.875 -0.625 15.875 C-0.625 11.915 -0.625 7.955 -0.625 3.875 C-0.955 3.875 -1.285 3.875 -1.625 3.875 Z " fill="#FFFFFF" transform="translate(158.625,103.125)"/>
<path d="M0 0 C2.375 0.875 2.375 0.875 4.375 3.875 C4.67578125 6.65234375 4.67578125 6.65234375 4.6875 9.8125 C4.70425781 10.85277344 4.72101563 11.89304687 4.73828125 12.96484375 C4.33346133 16.20775597 3.65991988 17.57372032 1.375 19.875 C-1.41338907 20.36296809 -2.88004984 20.37341989 -5.25390625 18.78515625 C-7.3340675 15.88715383 -7.05883383 13.3945227 -7.0625 9.875 C-7.09150391 8.01875 -7.09150391 8.01875 -7.12109375 6.125 C-6.625 2.875 -6.625 2.875 -4.76171875 0.9296875 C-2.625 -0.125 -2.625 -0.125 0 0 Z M-1.625 3.875 C-2.91112676 4.93478933 -2.91112676 4.93478933 -2.72265625 7.37890625 C-2.71105469 8.38824219 -2.69945313 9.39757812 -2.6875 10.4375 C-2.67847656 11.44941406 -2.66945313 12.46132812 -2.66015625 13.50390625 C-2.64855469 14.28636719 -2.63695313 15.06882812 -2.625 15.875 C-1.965 15.875 -1.305 15.875 -0.625 15.875 C-0.625 11.915 -0.625 7.955 -0.625 3.875 C-0.955 3.875 -1.285 3.875 -1.625 3.875 Z " fill="#FFFFFF" transform="translate(85.625,103.125)"/>
<path d="M0 0 C1.32 0 2.64 0 4 0 C4.33 4.62 4.66 9.24 5 14 C5.33 9.38 5.66 4.76 6 0 C7.65 0 9.3 0 11 0 C11.0809313 2.60478883 11.14045434 5.20706653 11.1875 7.8125 C11.22520508 8.91948242 11.22520508 8.91948242 11.26367188 10.04882812 C11.33773206 15.50459477 11.33773206 15.50459477 9.64453125 17.98828125 C7.27457992 19.44627981 5.72703052 19.40905458 3 19 C1.35546875 17.98828125 1.35546875 17.98828125 0 16 C-0.21714241 13.18872957 -0.28284276 10.6116655 -0.1875 7.8125 C-0.17396484 7.06291016 -0.16042969 6.31332031 -0.14648438 5.54101562 C-0.11118539 3.69370233 -0.05737917 1.84675934 0 0 Z " fill="#FFFFFF" transform="translate(114,104)"/>
<path d="M0 0 C1.32 0 2.64 0 4 0 C4.33 0.99 4.66 1.98 5 3 C5.33 2.01 5.66 1.02 6 0 C7.32 0 8.64 0 10 0 C10 6.27 10 12.54 10 19 C9.01 19 8.02 19 7 19 C6.34 17.68 5.68 16.36 5 15 C4.67 16.32 4.34 17.64 4 19 C2.68 19 1.36 19 0 19 C0 12.73 0 6.46 0 0 Z " fill="#FFFFFF" transform="translate(163,80)"/>
<path d="M0 0 C1.85625 0.0309375 1.85625 0.0309375 3.75 0.0625 C3.75 1.0525 3.75 2.0425 3.75 3.0625 C2.76 3.0625 1.77 3.0625 0.75 3.0625 C0.75 8.3425 0.75 13.6225 0.75 19.0625 C0.09 19.0625 -0.57 19.0625 -1.25 19.0625 C-1.25 13.7825 -1.25 8.5025 -1.25 3.0625 C-2.57 3.0625 -3.89 3.0625 -5.25 3.0625 C-5.21519531 4.04992187 -5.18039063 5.03734375 -5.14453125 6.0546875 C-5.11746094 7.33601563 -5.09039062 8.61734375 -5.0625 9.9375 C-5.02769531 11.21367188 -4.99289063 12.48984375 -4.95703125 13.8046875 C-5.05371094 14.87976563 -5.15039062 15.95484375 -5.25 17.0625 C-8.25 19.0625 -8.25 19.0625 -10.8125 18.8125 C-13.25 18.0625 -13.25 18.0625 -15.25 16.0625 C-15.39497985 13.48185871 -15.43677545 11.01306116 -15.375 8.4375 C-15.36597656 7.73109375 -15.35695313 7.0246875 -15.34765625 6.296875 C-15.32407603 4.55193902 -15.28820461 2.80717705 -15.25 1.0625 C-14.26 1.0625 -13.27 1.0625 -12.25 1.0625 C-11.92 6.0125 -11.59 10.9625 -11.25 16.0625 C-10.26 16.3925 -9.27 16.7225 -8.25 17.0625 C-8.25 11.7825 -8.25 6.5025 -8.25 1.0625 C-5.12110801 0.280277 -3.1099909 -0.05183318 0 0 Z " fill="#FFFFFF" transform="translate(102.25,79.9375)"/>
<path d="M0 0 C2.375 0.9375 2.375 0.9375 4.375 3.9375 C4.5 6.625 4.5 6.625 4.375 8.9375 C2.725 8.9375 1.075 8.9375 -0.625 8.9375 C-0.955 7.6175 -1.285 6.2975 -1.625 4.9375 C-1.625 8.2375 -1.625 11.5375 -1.625 14.9375 C-1.295 13.6175 -0.965 12.2975 -0.625 10.9375 C1.025 10.9375 2.675 10.9375 4.375 10.9375 C3.625 17.6875 3.625 17.6875 1.375 19.9375 C-1.35727228 20.28779132 -2.94916904 20.39991065 -5.2578125 18.8203125 C-7.25693175 16.0672397 -7.05867984 13.86556233 -7.0625 10.5 C-7.08183594 9.36691406 -7.10117188 8.23382813 -7.12109375 7.06640625 C-6.42726015 2.69033763 -4.67538941 -0.1113188 0 0 Z " fill="#FFFFFF" transform="translate(73.625,103.0625)"/>
<path d="M0 0 C1.32 0 2.64 0 4 0 C4.67099984 2.60311992 5.33695338 5.20735398 6 7.8125 C6.19078125 8.55048828 6.3815625 9.28847656 6.578125 10.04882812 C7.35262914 13.10535341 8 15.83373478 8 19 C6.35 19 4.7 19 3 19 C3 17.68 3 16.36 3 15 C2.34 15 1.68 15 1 15 C1 16.32 1 17.64 1 19 C-0.65 19 -2.3 19 -4 19 C-3.00318287 12.54189755 -1.98363508 6.23428168 0 0 Z " fill="#FFFFFF" transform="translate(125,80)"/>
<path d="M0 0 C1.32 0 2.64 0 4 0 C4.50643553 2.22771342 5.0048962 4.45724076 5.5 6.6875 C5.7784375 7.92886719 6.056875 9.17023438 6.34375 10.44921875 C6.89354126 13.42398218 7.13795705 15.99368602 7 19 C5.68 19 4.36 19 3 19 C3 17.68 3 16.36 3 15 C2.34 15 1.68 15 1 15 C0.67 16.32 0.34 17.64 0 19 C-1.32 19 -2.64 19 -4 19 C-2.42105263 2.42105263 -2.42105263 2.42105263 0 0 Z M1 10 C2 12 2 12 2 12 Z " fill="#FFFFFF" transform="translate(149,80)"/>
<path d="M0 0 C4.875 1.875 4.875 1.875 6 3 C6.15193163 5.12119924 6.22183514 7.24855315 6.25 9.375 C6.28867188 11.11910156 6.28867188 11.11910156 6.328125 12.8984375 C6 16 6 16 4.64453125 17.92578125 C3 19 3 19 0.4375 18.8125 C-2 18 -2 18 -4 16 C-4.3359375 13.3203125 -4.3359375 13.3203125 -4.375 10.125 C-4.40335937 9.07570313 -4.43171875 8.02640625 -4.4609375 6.9453125 C-3.90279382 3.37886899 -2.74573403 2.24650966 0 0 Z M-1 3 C-1 7.29 -1 11.58 -1 16 C0.32 16 1.64 16 3 16 C3 11.71 3 7.42 3 3 C1.68 3 0.36 3 -1 3 Z " fill="#FFFFFF" transform="translate(80,80)"/>
<path d="M0 0 C0.66 0 1.32 0 2 0 C2 2.31 2 4.62 2 7 C3.32 7 4.64 7 6 7 C6 4.69 6 2.38 6 0 C6.99 0 7.98 0 9 0 C9 5.94 9 11.88 9 18 C8.01 18 7.02 18 6 18 C6 15.36 6 12.72 6 10 C4.68 10 3.36 10 2 10 C2 12.64 2 15.28 2 18 C1.34 18 0.68 18 0 18 C0 12.06 0 6.12 0 0 Z " fill="#FFFFFF" transform="translate(107,81)"/>
<path d="M0 0 C1.65 0 3.3 0 5 0 C5 6.27 5 12.54 5 19 C3.35 19 1.7 19 0 19 C0 12.73 0 6.46 0 0 Z " fill="#FFFFFF" transform="translate(146,104)"/>
<path d="M0 0 C1.65 0 3.3 0 5 0 C5 6.27 5 12.54 5 19 C3.35 19 1.7 19 0 19 C0 12.73 0 6.46 0 0 Z " fill="#FFFFFF" transform="translate(157,80)"/>
<path d="M0 0 C0 2.64 0 5.28 0 8 C-2 8 -4 8 -6 8 C-6.33 7.34 -6.66 6.68 -7 6 C-7.33 6.66 -7.66 7.32 -8 8 C-10.31 8 -12.62 8 -15 8 C-15 5.69 -15 3.38 -15 1 C-9.92928099 0.28832014 -5.11791642 -0.10662326 0 0 Z " fill="#FFFFFF" transform="translate(84,127)"/>
<path d="M0 0 C0.99 0.33 1.98 0.66 3 1 C4.1875 4.0625 4.1875 4.0625 5 7 C5.268125 6.030625 5.53625 5.06125 5.8125 4.0625 C6.204375 3.051875 6.59625 2.04125 7 1 C7.99 0.67 8.98 0.34 10 0 C9.566875 1.918125 9.566875 1.918125 9.125 3.875 C8.00617536 8.90171927 6.9916404 13.94685368 6 19 C5.34 19 4.68 19 4 19 C3.32900016 16.39688008 2.66304662 13.79264602 2 11.1875 C1.80921875 10.44951172 1.6184375 9.71152344 1.421875 8.95117188 C0.64737086 5.89464659 0 3.16626522 0 0 Z " fill="#FFFFFF" transform="translate(66,80)"/>
<path d="M0 0 C0 1.98 0 3.96 0 6 C-1.32 6 -2.64 6 -4 6 C-4 5.01 -4 4.02 -4 3 C-4.33 4.32 -4.66 5.64 -5 7 C-5.66 7 -6.32 7 -7 7 C-7.33 6.34 -7.66 5.68 -8 5 C-8 5.66 -8 6.32 -8 7 C-9.32 7 -10.64 7 -12 7 C-12.33 4.69 -12.66 2.38 -13 0 C-8.38926889 -1.29676812 -4.66159911 -0.71109139 0 0 Z " fill="#FFFFFF" transform="translate(134,128)"/>
<path d="M0 0 C2.64 0 5.28 0 8 0 C8 2.31 8 4.62 8 7 C7.01 6.67 6.02 6.34 5 6 C2.85744207 6.38932856 2.85744207 6.38932856 1 7 C0.67 4.69 0.34 2.38 0 0 Z " fill="#FFFFFF" transform="translate(137,128)"/>
<path d="M0 0 C2.64 0.33 5.28 0.66 8 1 C8 3.31 8 5.62 8 8 C5.69 8 3.38 8 1 8 C0.67 5.36 0.34 2.72 0 0 Z " fill="#FFFFFF" transform="translate(146,127)"/>
<path d="M0 0 C-0.66 2.31 -1.32 4.62 -2 7 C-2.66 7 -3.32 7 -4 7 C-4 5.35 -4 3.7 -4 2 C-4.66 2 -5.32 2 -6 2 C-6 3.65 -6 5.3 -6 7 C-6.66 7 -7.32 7 -8 7 C-8 4.69 -8 2.38 -8 0 C-5.13822943 -1.43088528 -3.06624227 -0.59991697 0 0 Z " fill="#FFFFFF" transform="translate(106,128)"/>
<path d="M0 0 C1.32 0 2.64 0 4 0 C4 2.31 4 4.62 4 7 C2.68 7 1.36 7 0 7 C0 4.69 0 2.38 0 0 Z " fill="#FFFFFF" transform="translate(90,128)"/>
<path d="M0 0 C1.32 0 2.64 0 4 0 C4 1.98 4 3.96 4 6 C2.68 6 1.36 6 0 6 C0 4.02 0 2.04 0 0 Z " fill="#FFFFFF" transform="translate(158,128)"/>
<path d="M0 0 C1.32 0 2.64 0 4 0 C4 1.98 4 3.96 4 6 C2.68 6 1.36 6 0 6 C0 4.02 0 2.04 0 0 Z " fill="#FFFFFF" transform="translate(85,128)"/>
<path d="M0 0 C1.32 0 2.64 0 4 0 C4 1.98 4 3.96 4 6 C2.68 6 1.36 6 0 6 C0 4.02 0 2.04 0 0 Z " fill="#FFFFFF" transform="translate(163,128)"/>
<path d="M0 0 C1.32 0 2.64 0 4 0 C4.33 1.98 4.66 3.96 5 6 C4.01 6.33 3.02 6.66 2 7 C1.34 6.67 0.68 6.34 0 6 C0 4.02 0 2.04 0 0 Z " fill="#FFFFFF" transform="translate(108,128)"/>
<path d="M0 0 C0.66 0 1.32 0 2 0 C2.33 2.31 2.66 4.62 3 7 C1.68 7 0.36 7 -1 7 C-0.67 4.69 -0.34 2.38 0 0 Z " fill="#FFFFFF" transform="translate(118,128)"/>
<path d="M0 0 C1.32 0.33 2.64 0.66 4 1 C3.67 3.31 3.34 5.62 3 8 C2.34 8 1.68 8 1 8 C0.67 5.36 0.34 2.72 0 0 Z " fill="#FFFFFF" transform="translate(113,127)"/>
<path d="M0 0 C0.66 0 1.32 0 2 0 C2 2.31 2 4.62 2 7 C1.34 7 0.68 7 0 7 C0 4.69 0 2.38 0 0 Z " fill="#FFFFFF" transform="translate(95,128)"/>
<path d="M0 0 C0.66 0 1.32 0 2 0 C1.67 0.99 1.34 1.98 1 3 C0.67 2.01 0.34 1.02 0 0 Z " fill="#FFFFFF" transform="translate(35,120)"/>
<path d="M0 0 C0.66 0.33 1.32 0.66 2 1 C1.01 1.66 0.02 2.32 -1 3 C-0.67 2.01 -0.34 1.02 0 0 Z " fill="#FFFFFF" transform="translate(45,106)"/>
<path d="" fill="#FFFFFF" transform="translate(0,0)"/>
<path d="M0 0 C2 1 2 1 2 1 Z " fill="#FFFFFF" transform="translate(48,111)"/>
<path d="" fill="#FFFFFF" transform="translate(0,0)"/>
<path d="" fill="#FFFFFF" transform="translate(0,0)"/>
<path d="" fill="#FFFFFF" transform="translate(0,0)"/>
<path d="" fill="#FFFFFF" transform="translate(0,0)"/>
<path d="" fill="#FFFFFF" transform="translate(0,0)"/>
</svg>
